<svg width="29" height="28" viewBox="0 0 29 28" fill="none" xmlns="http://www.w3.org/2000/svg">
<path d="M20.1088 13.6997C19.6857 14.4527 19.2247 15.2232 18.7218 16.0046C18.4569 16.4156 18.1811 16.8292 17.9013 17.2321C16.8049 18.8138 15.6139 20.3062 14.3486 21.6824C13.1157 20.3306 11.9436 18.8462 10.8527 17.251C10.0646 16.0992 9.31023 14.8758 8.60861 13.6159C6.67276 10.1349 5.52098 7.07291 4.94779 5.33983C5.94951 5.08027 7.40817 4.75042 9.16828 4.49222C9.28589 4.47464 9.40215 4.45842 9.52112 4.44084C11.3678 4.18399 13.2076 4.05421 14.9853 4.05421C15.2827 4.05421 15.5788 4.05827 15.8735 4.06638V2.04806H19.5113V0.269019C18.0473 0.0905743 16.5372 0 14.9853 0C12.7886 0 10.7445 0.177093 8.96145 0.425834C8.83167 0.443409 8.7046 0.462335 8.57752 0.481261C4.81666 1.03552 2.30627 1.87773 2.15215 1.93045L0 2.66316L0.569131 4.86398C0.648891 5.1722 1.90476 9.9064 5.0654 15.5882C5.77918 16.8712 6.59029 18.2014 7.5055 19.5411C8.93982 21.6378 10.631 23.7535 12.6142 25.7366L14.3472 27.4697L16.0803 25.7366C18.0959 23.721 19.8006 21.6121 21.2349 19.5411C21.5459 19.0923 21.8446 18.6448 22.1312 18.2C23.1357 16.6413 23.9873 15.1219 24.7079 13.6984H20.1102L20.1088 13.6997Z" fill="#F8C400"/>
<path d="M25.3618 4.21102V0.573181H21.6753V4.21102H18.0361V7.89753H21.6753V11.5367H25.3618V7.89753H28.9997V4.21102H25.3618Z" fill="#F8C400"/>
</svg>
