<svg width="131" height="132" viewBox="0 0 131 132" fill="none" xmlns="http://www.w3.org/2000/svg">
<path d="M131 66C131 102.459 101.672 132 65.5 132C29.3279 132 0 102.459 0 66C0 29.5624 29.3279 0 65.5 0C101.672 0 131 29.5624 131 66ZM65.5 79.3065C58.7902 79.3065 53.3508 84.7874 53.3508 91.5484C53.3508 98.3094 58.7902 103.79 65.5 103.79C72.2098 103.79 77.6492 98.3094 77.6492 91.5484C77.6492 84.7874 72.2098 79.3065 65.5 79.3065ZM53.9654 35.3031L55.9246 71.4966C56.0162 73.1903 57.406 74.5161 59.0892 74.5161H71.9108C73.594 74.5161 74.9838 73.1903 75.0754 71.4966L77.0346 35.3031C77.1336 33.4737 75.6882 31.9355 73.87 31.9355H57.1297C55.3116 31.9355 53.8664 33.4737 53.9654 35.3031Z" fill="#9747FF"/>
</svg>
