<svg width="132" height="132" viewBox="0 0 132 132" fill="none" xmlns="http://www.w3.org/2000/svg">
<path d="M132 66C132 102.451 102.451 132 66 132C29.5491 132 0 102.451 0 66C0 29.5491 29.5491 0 66 0C102.451 0 132 29.5491 132 66ZM58.3658 100.946L107.334 51.9787C108.996 50.316 108.996 47.6198 107.334 45.957L101.312 39.9353C99.6491 38.2723 96.9529 38.2723 95.2899 39.9353L55.3548 79.8701L36.7101 61.2254C35.0473 59.5626 32.3512 59.5626 30.6881 61.2254L24.6664 67.2471C23.0037 68.9099 23.0037 71.606 24.6664 73.2688L52.3439 100.946C54.0069 102.609 56.7028 102.609 58.3658 100.946Z" fill="#28CC56"/>
</svg>
