<svg width="29" height="33" viewBox="0 0 29 33" fill="none" xmlns="http://www.w3.org/2000/svg">
<path d="M20.9447 3.3C19.5983 4.54395 18.3826 5.8517 17.3055 7.16525C15.5409 4.74504 13.3529 2.29002 10.875 0C4.51442 5.87619 0 13.5326 0 18.15C0 26.3517 6.49199 33 14.5 33C22.508 33 29 26.3517 29 18.15C29 14.7166 25.6352 7.63512 20.9447 3.3ZM19.6844 25.256C18.2823 26.2331 16.5533 26.8125 14.6851 26.8125C10.0147 26.8125 6.21429 23.7355 6.21429 18.7397C6.21429 16.2512 7.78792 14.0585 10.9261 10.3125C11.3747 10.8268 17.3236 18.3911 17.3236 18.3911L21.1189 14.0804C21.3869 14.5219 21.6309 14.9538 21.8484 15.3676C23.6188 18.7314 22.8718 23.0355 19.6844 25.256Z" fill="#FF6847"/>
</svg>
