<svg width="29" height="29" viewBox="0 0 29 29" fill="none" xmlns="http://www.w3.org/2000/svg">
<path d="M14.5 23.5625C21.008 23.5625 26.2812 18.2893 26.2812 11.7812C26.2812 5.27324 21.008 0 14.5 0C7.99199 0 2.71875 5.27324 2.71875 11.7812C2.71875 18.2893 7.99199 23.5625 14.5 23.5625ZM13.2426 5.5168V4.56523C13.2426 4.04414 13.6617 3.625 14.1828 3.625H14.8115C15.3326 3.625 15.7518 4.04414 15.7518 4.56523V5.52812C16.6297 5.57344 17.4793 5.87363 18.1873 6.40039C18.5045 6.63262 18.5385 7.09707 18.2553 7.36895L17.332 8.24688C17.1168 8.45645 16.7939 8.46211 16.5391 8.30352C16.2332 8.11094 15.8934 8.01465 15.5309 8.01465H13.3275C12.8178 8.01465 12.4043 8.4791 12.4043 9.05117C12.4043 9.51563 12.6875 9.9291 13.0896 10.048L16.6184 11.1072C18.074 11.5434 19.0936 12.9424 19.0936 14.5113C19.0936 16.4371 17.5982 17.9947 15.7461 18.0457V18.9973C15.7461 19.5184 15.327 19.9375 14.8059 19.9375H14.1771C13.6561 19.9375 13.2369 19.5184 13.2369 18.9973V18.0344C12.359 17.9891 11.5094 17.6889 10.8014 17.1621C10.4842 16.9299 10.4502 16.4654 10.7334 16.1936L11.6566 15.3156C11.8719 15.1061 12.1947 15.1004 12.4496 15.259C12.7555 15.4516 13.0953 15.5479 13.4578 15.5479H15.6611C16.1709 15.5479 16.5844 15.0834 16.5844 14.5113C16.5844 14.0469 16.3012 13.6334 15.899 13.5145L12.3703 12.4553C10.9146 12.0191 9.89512 10.6201 9.89512 9.05117C9.90078 7.12539 11.3904 5.56777 13.2426 5.5168ZM27.1875 19.9375H25.3467C24.2365 21.4102 22.8205 22.6393 21.2119 23.5625H24.8256C25.1258 23.5625 25.3693 23.7664 25.3693 24.0156V24.9219C25.3693 25.1711 25.1258 25.375 24.8256 25.375H4.16875C3.86855 25.375 3.625 25.1711 3.625 24.9219V24.0156C3.625 23.7664 3.86855 23.5625 4.16875 23.5625H7.78242C6.17383 22.6393 4.76348 21.4102 3.64766 19.9375H1.8125C0.809961 19.9375 0 20.7475 0 21.75V27.1875C0 28.19 0.809961 29 1.8125 29H27.1875C28.19 29 29 28.19 29 27.1875V21.75C29 20.7475 28.19 19.9375 27.1875 19.9375Z" fill="#28CC56"/>
</svg>
