<svg width="29" height="26" viewBox="0 0 29 26" fill="none" xmlns="http://www.w3.org/2000/svg">
<path d="M28.6215 9.01104L21.3713 15.9165C20.6071 16.6445 19.3333 16.1048 19.3333 15.0305V11.3761C12.0544 11.4254 8.98366 13.1592 11.0374 20.0776C11.2631 20.838 10.3906 21.4267 9.77839 20.9577C7.81651 19.4546 6.04167 16.5795 6.04167 13.6774C6.04167 6.36808 11.9624 4.91761 19.3333 4.87638V1.21937C19.3333 0.144129 20.608 -0.393848 21.3713 0.333339L28.6215 7.23898C29.126 7.71952 29.1264 8.53009 28.6215 9.01104ZM19.3333 19.2526V22.75H3.22222V6.50001H5.7857C5.86706 6.49996 5.94757 6.48332 6.02239 6.45109C6.09721 6.41886 6.1648 6.37171 6.2211 6.31247C6.97395 5.52191 7.84415 4.89619 8.78952 4.39924C9.34988 4.10466 9.14225 3.25001 8.51034 3.25001H2.41667C1.08196 3.25001 0 4.3413 0 5.68751V23.5625C0 24.9087 1.08196 26 2.41667 26H20.1389C21.4736 26 22.5556 24.9087 22.5556 23.5625V19.0528C22.5556 18.6319 22.1429 18.3385 21.7494 18.4789C21.1979 18.6756 20.6072 18.7345 20.0281 18.6504C19.6621 18.5973 19.3333 18.8796 19.3333 19.2526Z" fill="#2856CC"/>
</svg>
