<svg width="484" height="86" viewBox="0 0 484 86" fill="none" xmlns="http://www.w3.org/2000/svg">
<g clip-path="url(#clip0_124_53)">
<path d="M108.51 35.35C108.71 34.86 108.68 34.44 108.44 34.09C108.21 33.73 107.82 33.55 107.28 33.55H104.76L107.97 25.4H122.22L116.22 41.55L133.7 25.4H146L127.73 41.05L133.7 60.68H121.31L118.27 49.17L110.91 55.64L109.03 60.68H98.59L108.51 35.35Z" fill="white"/>
<path d="M150.5 35.35C150.7 34.86 150.67 34.44 150.43 34.09C150.19 33.74 149.8 33.57 149.27 33.57H146.75L149.93 25.42H164.18L151 60.65H140.61L150.51 35.34L150.5 35.35Z" fill="white"/>
<path d="M171.39 35.35C171.59 34.86 171.56 34.44 171.32 34.09C171.09 33.73 170.7 33.55 170.16 33.55H167.64L170.85 25.4H185.1L179.1 41.55L196.58 25.4H208.88L190.61 41.05L196.58 60.68H184.19L181.15 49.17L173.79 55.64L171.91 60.68H161.47L171.39 35.35Z" fill="white"/>
<path d="M212.06 46.0201C209.64 45.6401 208.04 44.9401 207.25 43.9201C206.44 42.8501 206.34 41.2601 206.93 39.1601L209.42 32.0201C210.24 29.9301 211.54 28.3001 213.3 27.1301C215.05 25.9901 217.07 25.4301 219.37 25.4301H232.78C235.15 25.4301 236.75 25.9801 237.57 27.0801C238.39 28.2201 238.38 29.8501 237.54 31.9901L236.03 36.0101H226.13L227.09 33.5401H219.31L217.48 38.1301L226.86 39.8101C229.58 40.2901 231.36 41.1101 232.22 42.2801C233.04 43.4301 233.07 45.0401 232.29 47.1201L229.7 54.0301C227.95 58.4601 224.86 60.6701 220.42 60.6701H205.85C203.5 60.6701 201.9 60.1101 201.06 58.9901C200.24 57.8501 200.24 56.2101 201.08 54.0501L202.49 50.3701H212.71L211.9 52.4701H219.68L221.48 47.9001L212.05 46.0001L212.06 46.0201Z" fill="white"/>
<path d="M273.51 25.4301L270.33 33.6001H262.48C261.18 33.6001 260.3 34.2001 259.84 35.4001L254.51 48.9501L249.92 60.6801H240.17L244.76 48.9501L250.07 35.4001C250.27 34.9101 250.25 34.4801 250.02 34.1201C249.77 33.7701 249.38 33.6001 248.83 33.6001H240.02L243.21 25.4301H273.53H273.51Z" fill="white"/>
<path d="M295.2 25.4301V60.6601H285V54.6801H272.21L267.94 60.6601H256.78L282.93 25.4301H295.2ZM285 36.3401L277.81 46.9601H285V36.3401Z" fill="white"/>
<path d="M333.93 25.4301C335.87 25.5001 337.21 26.1201 337.95 27.3101C338.71 28.5101 338.7 30.1001 337.93 32.0801L333.58 43.9601C332.59 46.3601 330.66 47.8501 327.78 48.4301L329.63 60.7001H319.04L317.85 48.7501H312.12L307.53 60.7001H297.58L302.2 48.7501L307.51 35.2001C307.71 34.6901 307.68 34.2601 307.44 33.9201C307.2 33.5801 306.81 33.4001 306.28 33.4001H303.32L306.5 25.4501H333.93V25.4301ZM315.12 40.7901H324.77L327.66 33.5801H317.93L315.12 40.7901Z" fill="white"/>
<path d="M373.68 25.4301L370.5 33.6001H362.65C361.35 33.6001 360.47 34.2001 360.01 35.4001L354.68 48.9501L350.09 60.6801H340.34L344.93 48.9501L350.24 35.4001C350.44 34.9101 350.42 34.4801 350.19 34.1201C349.94 33.7701 349.55 33.6001 349 33.6001H340.19L343.38 25.4301H373.7H373.68Z" fill="white"/>
<path d="M379.98 35.3801C380.18 34.8901 380.15 34.4601 379.91 34.1001C379.66 33.7501 379.28 33.5801 378.75 33.5801H375.79L378.97 25.4301H410.08L406.87 33.5801H391.39L389.29 38.8601H403.81L400.6 47.1101H386.08L384.06 52.2901H400.43L397.54 60.6801H370.06L379.99 35.3701L379.98 35.3801Z" fill="white"/>
<path d="M443.21 25.4301C445.15 25.5001 446.49 26.1201 447.23 27.3101C447.99 28.5101 447.98 30.1001 447.21 32.0801L442.86 43.9601C441.87 46.3601 439.94 47.8501 437.06 48.4301L438.91 60.7001H428.32L427.13 48.7501H421.4L416.81 60.7001H406.86L411.48 48.7501L416.79 35.2001C416.99 34.6901 416.96 34.2601 416.72 33.9201C416.48 33.5801 416.09 33.4001 415.56 33.4001H412.6L415.78 25.4501H443.21V25.4301ZM424.4 40.7901H434.05L436.94 33.5801H427.21L424.4 40.7901Z" fill="white"/>
<path d="M455.25 25.48H483.22L480.28 34.02L458.08 52.12L474.03 52.14L471.07 60.78H441.81L445.14 52.06L468.25 33.54L452.18 33.51L455.24 25.46L455.25 25.48Z" fill="white"/>
<path d="M21.998 39.1949L29.3886 20.3297C29.6868 19.5824 29.6491 18.9482 29.2754 18.4236C28.9281 17.8763 28.3431 17.6007 27.5202 17.6007H23.7117L25.5839 12.8448C17.7328 14.264 12.7693 15.955 12.7693 15.955C12.7693 15.955 15.3926 26.0934 21.998 39.1911V39.1949Z" fill="white"/>
<path d="M50.3449 64.9335L47.1064 52.6964L47.1668 52.7077L44.1396 41.2444L33.0084 51.0318L31.4533 55.2065C35.175 60.6079 39.5346 66.0357 44.6114 71.1124C46.6383 69.0855 48.5445 67.017 50.3411 64.9335H50.3449Z" fill="white"/>
<path d="M41.0407 29.7057L60.3097 11.9087C56.1086 11.301 51.9793 11.0066 48.0122 10.9462L41.0407 29.7057Z" fill="white"/>
<path d="M63.6767 46.14C73.2565 29.6566 76.4573 15.9588 76.4573 15.9588C75.7892 15.7096 75.1173 15.4794 74.4492 15.2529L58.4489 28.9621L63.6804 46.1438L63.6767 46.14Z" fill="white"/>
<path d="M38.1116 79.1522C32.646 73.6867 27.5051 67.4549 22.8398 60.6305C20.2806 56.8899 17.831 52.9191 15.5587 48.8388C6.06947 31.7779 2.29492 17.4082 2.13639 16.8043L0 8.53802L8.0813 5.78638C8.39836 5.67692 16.0267 3.10268 27.3466 1.43433C27.724 1.37771 28.1053 1.32109 28.4903 1.26825C34.5711 0.426524 40.6292 0 46.4986 0C54.0402 0 61.3515 0.717164 68.2249 2.12884C72.8072 3.07248 77.2347 4.3294 81.3905 5.86942L89 8.689L87.1505 16.5929C86.9693 17.3742 82.5342 35.9488 69.2025 56.6408C68.3381 57.9846 67.4398 59.3283 66.5301 60.6418C61.8799 67.3568 56.6974 73.5848 51.1262 79.1522L44.6189 85.6595L38.1116 79.1522ZM8.45498 15.1699C8.59086 15.7021 11.9238 28.3808 20.2542 43.8527C22.9908 48.937 26.0028 53.8212 29.1999 58.3658C33.367 64.2918 37.9191 69.7309 42.7241 74.5397L44.6189 76.4345L46.5137 74.5397C47.8763 73.1771 49.2578 71.7239 50.6242 70.2216C51.5112 69.244 52.3794 68.2589 53.2022 67.2888C55.6255 64.4466 57.9657 61.442 60.1662 58.3545C61.7855 56.0822 63.3671 53.708 64.8656 51.3036C76.6874 32.3328 80.6356 15.8002 80.7979 15.1057L81.3339 12.807L79.122 11.988C74.736 10.3611 70.0367 9.07778 65.1449 8.17566C60.2795 7.27355 55.1348 6.73756 49.858 6.57903C48.6086 6.54129 47.5064 6.52241 46.4986 6.52241C40.0932 6.52241 33.4915 7.05462 26.871 8.10395C16.9515 9.67416 10.4593 11.8709 10.1875 11.9615L7.83596 12.7617L8.45876 15.1661L8.45498 15.1699Z" fill="#F8C400"/>
</g>
<defs>
<clipPath id="clip0_124_53">
<rect width="483.22" height="85.65" fill="white"/>
</clipPath>
</defs>
</svg>
