<svg width="484" height="86" viewBox="0 0 484 86" fill="none" xmlns="http://www.w3.org/2000/svg">
<g clip-path="url(#clip0_124_53)">
<path d="M108.51 35.35C108.71 34.86 108.68 34.44 108.44 34.09C108.21 33.73 107.82 33.55 107.28 33.55H104.76L107.97 25.4H122.22L116.22 41.55L133.7 25.4H146L127.73 41.05L133.7 60.68H121.31L118.27 49.17L110.91 55.64L109.03 60.68H98.59L108.51 35.35Z" fill="white"/>
<path d="M150.5 35.35C150.7 34.86 150.67 34.44 150.43 34.09C150.19 33.74 149.8 33.57 149.27 33.57H146.75L149.93 25.42H164.18L151 60.65H140.61L150.51 35.34L150.5 35.35Z" fill="white"/>
<path d="M171.39 35.35C171.59 34.86 171.56 34.44 171.32 34.09C171.09 33.73 170.7 33.55 170.16 33.55H167.64L170.85 25.4H185.1L179.1 41.55L196.58 25.4H208.88L190.61 41.05L196.58 60.68H184.19L181.15 49.17L173.79 55.64L171.91 60.68H161.47L171.39 35.35Z" fill="white"/>
<path d="M212.06 46.0201C209.64 45.6401 208.04 44.9401 207.25 43.9201C206.44 42.8501 206.34 41.2601 206.93 39.1601L209.42 32.0201C210.24 29.9301 211.54 28.3001 213.3 27.1301C215.05 25.9901 217.07 25.4301 219.37 25.4301H232.78C235.15 25.4301 236.75 25.9801 237.57 27.0801C238.39 28.2201 238.38 29.8501 237.54 31.9901L236.03 36.0101H226.13L227.09 33.5401H219.31L217.48 38.1301L226.86 39.8101C229.58 40.2901 231.36 41.1101 232.22 42.2801C233.04 43.4301 233.07 45.0401 232.29 47.1201L229.7 54.0301C227.95 58.4601 224.86 60.6701 220.42 60.6701H205.85C203.5 60.6701 201.9 60.1101 201.06 58.9901C200.24 57.8501 200.24 56.2101 201.08 54.0501L202.49 50.3701H212.71L211.9 52.4701H219.68L221.48 47.9001L212.05 46.0001L212.06 46.0201Z" fill="white"/>
<path d="M273.51 25.4301L270.33 33.6001H262.48C261.18 33.6001 260.3 34.2001 259.84 35.4001L254.51 48.9501L249.92 60.6801H240.17L244.76 48.9501L250.07 35.4001C250.27 34.9101 250.25 34.4801 250.02 34.1201C249.77 33.7701 249.38 33.6001 248.83 33.6001H240.02L243.21 25.4301H273.53H273.51Z" fill="white"/>
<path d="M295.2 25.4301V60.6601H285V54.6801H272.21L267.94 60.6601H256.78L282.93 25.4301H295.2ZM285 36.3401L277.81 46.9601H285V36.3401Z" fill="white"/>
<path d="M333.93 25.4301C335.87 25.5001 337.21 26.1201 337.95 27.3101C338.71 28.5101 338.7 30.1001 337.93 32.0801L333.58 43.9601C332.59 46.3601 330.66 47.8501 327.78 48.4301L329.63 60.7001H319.04L317.85 48.7501H312.12L307.53 60.7001H297.58L302.2 48.7501L307.51 35.2001C307.71 34.6901 307.68 34.2601 307.44 33.9201C307.2 33.5801 306.81 33.4001 306.28 33.4001H303.32L306.5 25.4501H333.93V25.4301ZM315.12 40.7901H324.77L327.66 33.5801H317.93L315.12 40.7901Z" fill="white"/>
<path d="M373.68 25.4301L370.5 33.6001H362.65C361.35 33.6001 360.47 34.2001 360.01 35.4001L354.68 48.9501L350.09 60.6801H340.34L344.93 48.9501L350.24 35.4001C350.44 34.9101 350.42 34.4801 350.19 34.1201C349.94 33.7701 349.55 33.6001 349 33.6001H340.19L343.38 25.4301H373.7H373.68Z" fill="white"/>
<path d="M379.98 35.3801C380.18 34.8901 380.15 34.4601 379.91 34.1001C379.66 33.7501 379.28 33.5801 378.75 33.5801H375.79L378.97 25.4301H410.08L406.87 33.5801H391.39L389.29 38.8601H403.81L400.6 47.1101H386.08L384.06 52.2901H400.43L397.54 60.6801H370.06L379.99 35.3701L379.98 35.3801Z" fill="white"/>
<path d="M443.21 25.4301C445.15 25.5001 446.49 26.1201 447.23 27.3101C447.99 28.5101 447.98 30.1001 447.21 32.0801L442.86 43.9601C441.87 46.3601 439.94 47.8501 437.06 48.4301L438.91 60.7001H428.32L427.13 48.7501H421.4L416.81 60.7001H406.86L411.48 48.7501L416.79 35.2001C416.99 34.6901 416.96 34.2601 416.72 33.9201C416.48 33.5801 416.09 33.4001 415.56 33.4001H412.6L415.78 25.4501H443.21V25.4301ZM424.4 40.7901H434.05L436.94 33.5801H427.21L424.4 40.7901Z" fill="white"/>
<path d="M455.25 25.48H483.22L480.28 34.02L458.08 52.12L474.03 52.14L471.07 60.78H441.81L445.14 52.06L468.25 33.54L452.18 33.51L455.24 25.46L455.25 25.48Z" fill="white"/>
<path d="M19.48 39.2L27.73 18.13C28.06 17.3 28.02 16.59 27.6 16C27.21 15.39 26.56 15.08 25.64 15.08H21.39L23.48 9.77002C14.71 11.36 9.17 13.24 9.17 13.24C9.17 13.24 12.1 24.56 19.48 39.19V39.2Z" fill="white"/>
<path d="M51.13 67.95L47.51 54.29H47.58L44.2 41.5L31.77 52.43L30.03 57.09C34.19 63.12 39.05 69.19 44.72 74.85C46.98 72.59 49.11 70.28 51.12 67.95H51.13Z" fill="white"/>
<path d="M40.75 28.6L62.27 8.72002C57.58 8.04002 52.97 7.71002 48.54 7.65002L40.76 28.6H40.75Z" fill="white"/>
<path d="M66.02 46.96C76.72 28.55 80.29 13.25 80.29 13.25C79.54 12.97 78.79 12.71 78.05 12.46L60.18 27.77L66.02 46.96Z" fill="white"/>
<path d="M82.95 6.09001C78.6 4.48001 74.05 3.19001 69.31 2.22001C62.17 0.75001 54.62 0.0100098 46.72 0.0100098C39.87 0.0100098 33.5 0.56001 27.94 1.34001C27.54 1.40001 27.14 1.45001 26.74 1.51001C15.02 3.23001 7.19 5.85001 6.71 6.02001L0 8.30001L1.77 15.16C2.02 16.12 5.93 30.88 15.79 48.6C18.02 52.6 20.54 56.75 23.4 60.93C27.87 67.47 33.15 74.06 39.33 80.25L44.73 85.65L50.13 80.25C56.42 73.96 61.73 67.39 66.2 60.93C67.17 59.53 68.1 58.14 68.99 56.75C82.86 35.23 87.47 16.07 87.72 14.99L89.25 8.43001L84.7 6.74001L82.93 6.08001L82.95 6.09001ZM85.11 14.38C84.87 15.41 80.62 33.06 67.97 53.36C66.42 55.85 64.74 58.39 62.92 60.94C60.64 64.14 58.15 67.36 55.43 70.55C54.53 71.61 53.6 72.66 52.65 73.7C51.23 75.26 49.76 76.82 48.23 78.35L44.73 81.85L41.23 78.35C35.65 72.77 30.82 66.84 26.67 60.94C22.94 55.64 19.76 50.36 17.06 45.35C8.18 28.84 4.62 15.4 4.39 14.49L3.24 10.05L7.58 8.57001C8.03 8.42001 15 6.08001 25.6 4.40001C31.64 3.44001 38.86 2.70001 46.72 2.70001C47.94 2.70001 49.14 2.72001 50.34 2.76001C56.05 2.93001 61.57 3.51001 66.85 4.48001C72.14 5.46001 77.21 6.84001 82 8.62001L82.37 8.76001L86.09 10.14L85.1 14.39L85.11 14.38Z" fill="#F8C400"/>
</g>
<defs>
<clipPath id="clip0_124_53">
<rect width="483.22" height="85.65" fill="white"/>
</clipPath>
</defs>
</svg>
